<?xml version="1.0" encoding="UTF-8"?>
<svg width="108px" height="32.12px" viewBox="0 0 212 67" version="1.1" xmlns="http://www.w3.org/2000/svg" xmlns:xlink="http://www.w3.org/1999/xlink">
    <!-- Generator: sketchtool 53.2 (72643) - https://sketchapp.com -->
    <title>E06A0AC6-3D42-42C7-AF8C-6F64F856EB67</title>
    <desc>Created with sketchtool.</desc>
    <g id="Login---UI" stroke="none" stroke-width="1" fill="none" fill-rule="evenodd">
        <g id="login-form---vp-1024" transform="translate(-150.000000, -379.000000)">
            <g id="-Logo-/-white" transform="translate(150.000000, 379.000000)">
                <g id="Logo-Hi-school-Copy">
                    <g id="symbol-hi">
                        <path d="M6,0 L48.5780981,-8.8817842e-16 C51.8918066,1.44626758e-15 54.5780981,2.6862915 54.5780981,6 L54.5780981,49.1764706 C54.5780981,52.4901791 51.8918066,55.1764706 48.5780981,55.1764706 L6,55.1764706 C2.6862915,55.1764706 5.70873724e-15,52.4901791 8.8817842e-16,49.1764706 L8.8817842e-16,6 C4.82366169e-16,2.6862915 2.6862915,-2.79460044e-16 6,-8.8817842e-16 Z" id="Rectangle" fill="#FF8F00"></path>
                        <g id="Group" transform="translate(11.777778, 13.794118)" fill="#FFFFFF">
                            <polygon id="Hi" points="20.728273 27.6374962 17.1531553 27.6374962 17.1531553 15.1689214 3.55659376 15.1689214 3.55659376 27.6374962 0 27.6374962 0 0.662392322 3.55659376 0.662392322 3.55659376 12.2602049 17.1531553 12.2602049 17.1531553 0.662392322 20.728273 0.662392322"></polygon>
                            <polygon id="Path" points="29.8950273 27.6374962 26.468101 27.6374962 26.468101 7.59143687 29.8950273 7.59143687"></polygon>
                            <path d="M26.1902421,2.27422889 C26.1902421,1.7184204 26.3600431,1.24907804 26.6996501,0.86618775 C27.0392571,0.483297456 27.5424853,0.291855181 28.20935,0.291855181 C28.8762147,0.291855181 29.3825302,0.483297456 29.7283119,0.86618775 C30.0740936,1.24907804 30.2469819,1.7184204 30.2469819,2.27422889 C30.2469819,2.83003738 30.0740936,3.29320417 29.7283119,3.66374317 C29.3825302,4.03428216 28.8762147,4.21954888 28.20935,4.21954888 C27.5424853,4.21954888 27.0392571,4.03428216 26.6996501,3.66374317 C26.3600431,3.29320417 26.1902421,2.83003738 26.1902421,2.27422889 Z" id="Path"></path>
                        </g>
                    </g>
                    <g id="Group-13" transform="translate(69.685185, 14.779412)" fill="#FFFFFF">
                        <polygon id="Fill-1" points="122.491705 1.40582092 122.491705 27.3003275 142.016603 27.3003275 142.016603 22.0801276 127.972419 22.0801276 127.972419 1.40582092"></polygon>
                        <path d="M0.135675206,23.334479 C3.20580875,25.8950516 7.13411462,27.3003275 11.2487983,27.3003275 C17.2407049,27.3003275 20.9622335,24.2292856 20.9622335,19.2868275 L20.9622335,19.2095945 C20.9622335,15.1372649 18.6737739,13.0350636 12.5182072,11.4547566 C7.92737927,10.2948899 6.19202592,9.64686352 6.19202592,7.42127214 L6.19202592,7.34449609 C6.19202592,6.03427627 7.24677582,4.50469632 10.2195478,4.50469632 C12.4074005,4.50469632 14.7292411,5.32866784 17.3056126,7.02231089 L19.9645096,3.22235353 C17.2077875,1.15762624 13.9577669,0.111095594 10.2979007,0.111095594 C4.77286574,0.111095594 1.06107336,3.23652054 1.06107336,7.88924043 L1.06107336,7.96738747 C1.06107336,12.8029075 3.91098439,14.3713325 9.89918204,15.8785194 C14.5553812,17.0548381 15.82989,17.8966326 15.82989,19.7950118 L15.82989,19.8727019 C15.82989,21.743204 14.1204998,22.9053558 11.3679502,22.9053558 C8.51293932,22.9053558 5.89298694,21.9068101 3.15480985,19.7689628 L0.135675206,23.334479 Z" id="Fill-2"></path>
                        <path d="M38.9224933,5.38854977 C34.1146436,5.38854977 30.2028518,9.25849555 30.2028518,14.0157429 C30.2028518,18.7725219 34.1146436,22.6429359 38.9224933,22.6429359 C43.7317631,22.6429359 47.6445016,18.7725219 47.6445016,14.0157429 C47.6445016,9.25849555 43.7317631,5.38854977 38.9224933,5.38854977 L38.9224933,5.38854977 Z M45.3956,26.3578966 L45.1016476,26.5011759 C43.1675259,27.4427925 41.0885581,27.9199219 38.9224933,27.9199219 C31.1722794,27.9199219 24.8672131,21.6825901 24.8672131,14.0157429 C24.8672131,6.34889566 31.1722794,0.111095594 38.9224933,0.111095594 C46.6736539,0.111095594 52.9801402,6.34889566 52.9801402,14.0157429 C52.9801402,17.2095602 51.9075216,20.2165525 49.8787293,22.7131709 L49.6041844,23.0512351 L54.8053907,27.8745033 L49.1961538,29.8897781 L45.3956,26.3578966 Z" id="Fill-4"></path>
                        <path d="M87.7811358,51.9001087 C81.3418473,51.9001087 75.3074144,50.3554473 69.8456576,47.3095219 C66.4114968,45.3924058 63.1887711,42.895386 60.0120302,39.6882702 L65.6055784,37.6581301 C72.2126875,43.6422028 79.4692721,46.5517364 87.7811358,46.5517364 C93.5846968,46.5517364 99.5162566,44.7552747 104.484507,41.493316 C106.173617,40.3826286 107.764595,39.0940596 109.218567,37.6605146 L114.681746,39.6429652 C112.537529,42.0741736 110.086588,44.2006463 107.388658,45.9718327 C101.48175,49.8499391 94.701605,51.9001087 87.7811358,51.9001087" id="Fill-6"></path>
                        <path d="M102.679658,5.32544375 C98.3708461,5.81162792 95.1385471,9.41314477 95.1385471,13.7054826 C95.1385471,18.3562783 98.9420099,22.1399998 103.617176,22.1399998 C107.282105,22.1399998 110.517626,19.8116262 111.669159,16.3469918 C111.756145,16.048048 111.893758,15.3288434 111.40866,14.7488101 C111.244353,14.5519558 111.030339,14.4132423 110.776744,14.3377052 C110.498105,14.2474254 110.276086,14.2164062 110.110685,14.2446477 C109.945285,14.2728892 109.806472,14.3089442 109.694248,14.3528126 C109.275886,14.4713829 108.840955,14.5318126 108.402341,14.5318126 C105.78677,14.5318126 103.658598,12.4154007 103.658598,9.81417805 C103.658598,9.07666138 103.827968,8.36569714 104.162106,7.70051295 C104.22562,7.5737022 104.63938,6.69564077 104.202147,5.99749494 C103.926921,5.56121103 103.434919,5.32132354 102.81589,5.32132354 C102.762502,5.32132354 102.716477,5.32315475 102.679658,5.32544375 Z M89.9502077,13.7054826 C89.9502077,6.20945659 96.0811284,0.111095594 103.617176,0.111095594 C111.153685,0.111095594 117.285065,6.20945659 117.285065,13.7054826 C117.285065,21.2015087 111.153685,27.3003275 103.617176,27.3003275 C96.0811284,27.3003275 89.9502077,21.2015087 89.9502077,13.7054826 Z" id="Fill-10"></path>
                        <path d="M70.1381604,5.32544375 C65.8293489,5.81162792 62.5970498,9.41314477 62.5970498,13.7054826 C62.5970498,18.3562783 66.4005126,22.1399998 71.0756791,22.1399998 C74.7406082,22.1399998 77.976129,19.8116262 79.1276614,16.3469918 C79.2146477,16.048048 79.3522609,15.3288434 78.8671629,14.7488101 C78.7028555,14.5519558 78.4888417,14.4132423 78.2352468,14.3377052 C77.956608,14.2474254 77.7345884,14.2164062 77.569188,14.2446477 C77.4037875,14.2728892 77.2649752,14.3089442 77.1527511,14.3528126 C76.7343886,14.4713829 76.2994573,14.5318126 75.860844,14.5318126 C73.2452729,14.5318126 71.1171011,12.4154007 71.1171011,9.81417805 C71.1171011,9.07666138 71.2864712,8.36569714 71.6206089,7.70051295 C71.6841226,7.5737022 72.0978827,6.69564077 71.6606502,5.99749494 C71.3854238,5.56121103 70.8934221,5.32132354 70.2743929,5.32132354 C70.2210045,5.32132354 70.17498,5.32315475 70.1381604,5.32544375 Z M57.4087104,13.7054826 C57.4087104,6.20945659 63.5396311,0.111095594 71.0756791,0.111095594 C78.6121873,0.111095594 84.7435682,6.20945659 84.7435682,13.7054826 C84.7435682,21.2015087 78.6121873,27.3003275 71.0756791,27.3003275 C63.5396311,27.3003275 57.4087104,21.2015087 57.4087104,13.7054826 Z" id="Fill-10-Copy"></path>
                    </g>
                </g>
            </g>
        </g>
    </g>
</svg>
